# xmcd
#
# Track frame offsets: 
#        150
#        13863
#        30845
#        51474
#        71831
#        92807
#        114401
#        134454
#        149296
#        167511
#        182986
#
# Disc length: 2768 seconds
#
# Revision: 0
# Processed by: cddbd v1.5.2PL0 Copyright (c) Steve Scherf et al.
# Submitted via: ExactAudioCopyFreeDBPlugin 1.0
#
DISCID=9a0ace0b
DTITLE=Grady Champion - Bootleg Whiskey
DYEAR=2014
DGENRE=Blues
TTITLE0=Beg, Borrow, Steal
TTITLE1=Bootleg Whiskey
TTITLE2=Don't Waste My Time
TTITLE3=Home Alone
TTITLE4=Ten Dollars
TTITLE5=South Side
TTITLE6=Who Dat
TTITLE7=Here We Go Ya'll
TTITLE8=I Tripped And Fell In Love
TTITLE9=Mr. Right
TTITLE10=White Boy With The Blues
EXTD=
EXTT0=
EXTT1=
EXTT2=
EXTT3=
EXTT4=
EXTT5=
EXTT6=
EXTT7=
EXTT8=
EXTT9=
EXTT10=
PLAYORDER=
